<mxfile host="app.diagrams.net" agent="Mozilla/5.0 (Macintosh; Intel Mac OS X 10_15_7) AppleWebKit/537.36 (KHTML, like Gecko) Chrome/128.0.0.0 Safari/537.36" version="24.7.14">
  <diagram name="PÃ¡gina-1" id="UdvlMDwMhkQ0GoXqI9My">
    <mxGraphModel dx="2562" dy="1129" grid="1" gridSize="10" guides="1" tooltips="1" connect="1" arrows="1" fold="1" page="1" pageScale="1" pageWidth="827" pageHeight="1169" math="0" shadow="0">
      <root>
        <mxCell id="0" />
        <mxCell id="1" parent="0" />
        <mxCell id="bnlqD7HyC4EOQEvdHB1O-1" value="&lt;font style=&quot;font-size: 20px;&quot;&gt;Security Operations Center&lt;/font&gt;" style="rounded=1;whiteSpace=wrap;html=1;fillColor=#e20074;strokeColor=none;fontColor=#FFFFFF;fontFamily=teleneo;fontSize=20;" parent="1" vertex="1">
          <mxGeometry x="330" y="100" width="260" height="60" as="geometry" />
        </mxCell>
        <mxCell id="bnlqD7HyC4EOQEvdHB1O-4" value="Business" style="rounded=1;whiteSpace=wrap;html=1;gradientColor=none;fillColor=#11A0BB;strokeColor=none;fontFamily=teleneo;fontColor=#FFFFFF;fontSize=16;" parent="1" vertex="1">
          <mxGeometry x="-70" y="240" width="120" height="60" as="geometry" />
        </mxCell>
        <mxCell id="bnlqD7HyC4EOQEvdHB1O-5" value="People" style="rounded=1;whiteSpace=wrap;html=1;gradientColor=none;fillColor=#11a0bb;strokeColor=none;fontFamily=teleneo;fontColor=#FFFFFF;fontSize=16;" parent="1" vertex="1">
          <mxGeometry x="160" y="250" width="120" height="60" as="geometry" />
        </mxCell>
        <mxCell id="bnlqD7HyC4EOQEvdHB1O-6" value="Process" style="rounded=1;whiteSpace=wrap;html=1;gradientColor=none;fillColor=#11a0bb;strokeColor=none;fontFamily=teleneo;fontColor=#FFFFFF;fontSize=16;" parent="1" vertex="1">
          <mxGeometry x="400" y="240" width="120" height="60" as="geometry" />
        </mxCell>
        <mxCell id="bnlqD7HyC4EOQEvdHB1O-7" value="Business" style="rounded=1;whiteSpace=wrap;html=1;gradientColor=none;fillColor=#848bc0;strokeColor=none;fontFamily=teleneo;fontColor=#FFFFFF;fontSize=16;" parent="1" vertex="1">
          <mxGeometry x="640" y="240" width="120" height="60" as="geometry" />
        </mxCell>
        <mxCell id="bnlqD7HyC4EOQEvdHB1O-8" value="Services" style="rounded=1;whiteSpace=wrap;html=1;gradientColor=none;fillColor=#848bc0;strokeColor=none;fontFamily=teleneo;fontColor=#FFFFFF;fontSize=16;" parent="1" vertex="1">
          <mxGeometry x="870" y="240" width="120" height="60" as="geometry" />
        </mxCell>
        <mxCell id="bnlqD7HyC4EOQEvdHB1O-9" value="" style="endArrow=oval;html=1;rounded=1;entryX=0.5;entryY=0;entryDx=0;entryDy=0;strokeColor=#E20074;fontFamily=teleneo;curved=0;endFill=1;" parent="1" target="bnlqD7HyC4EOQEvdHB1O-4" edge="1">
          <mxGeometry width="50" height="50" relative="1" as="geometry">
            <mxPoint x="460" y="180" as="sourcePoint" />
            <mxPoint x="440" y="260" as="targetPoint" />
            <Array as="points">
              <mxPoint x="460" y="180" />
              <mxPoint x="-10" y="180" />
            </Array>
          </mxGeometry>
        </mxCell>
        <mxCell id="bnlqD7HyC4EOQEvdHB1O-10" value="" style="endArrow=oval;html=1;rounded=0;entryX=0.5;entryY=0;entryDx=0;entryDy=0;strokeColor=#E20074;curved=0;endFill=1;exitX=0.5;exitY=1;exitDx=0;exitDy=0;" parent="1" source="bnlqD7HyC4EOQEvdHB1O-1" target="bnlqD7HyC4EOQEvdHB1O-5" edge="1">
          <mxGeometry width="50" height="50" relative="1" as="geometry">
            <mxPoint x="440" y="160" as="sourcePoint" />
            <mxPoint x="130" y="250" as="targetPoint" />
            <Array as="points">
              <mxPoint x="460" y="180" />
              <mxPoint x="220" y="180" />
            </Array>
          </mxGeometry>
        </mxCell>
        <mxCell id="bnlqD7HyC4EOQEvdHB1O-11" value="Business&lt;div style=&quot;font-size: 14px;&quot;&gt;drivers&lt;/div&gt;" style="rounded=1;whiteSpace=wrap;html=1;gradientColor=none;fillColor=#11A0BB;strokeColor=none;fontFamily=teleneo;fontColor=#FFFFFF;fontSize=14;" parent="1" vertex="1">
          <mxGeometry x="-120" y="360" width="100" height="40" as="geometry" />
        </mxCell>
        <mxCell id="bnlqD7HyC4EOQEvdHB1O-13" value="" style="endArrow=oval;html=1;rounded=1;entryX=0.5;entryY=0;entryDx=0;entryDy=0;strokeColor=#E20074;curved=0;endFill=1;exitX=0.5;exitY=1;exitDx=0;exitDy=0;" parent="1" source="bnlqD7HyC4EOQEvdHB1O-1" target="bnlqD7HyC4EOQEvdHB1O-6" edge="1">
          <mxGeometry width="50" height="50" relative="1" as="geometry">
            <mxPoint x="440" y="159" as="sourcePoint" />
            <mxPoint x="290" y="250" as="targetPoint" />
            <Array as="points" />
          </mxGeometry>
        </mxCell>
        <mxCell id="bnlqD7HyC4EOQEvdHB1O-14" value="" style="endArrow=oval;html=1;rounded=0;entryX=0.5;entryY=0;entryDx=0;entryDy=0;strokeColor=#E20074;curved=0;endFill=1;exitX=0.5;exitY=1;exitDx=0;exitDy=0;" parent="1" source="bnlqD7HyC4EOQEvdHB1O-1" target="bnlqD7HyC4EOQEvdHB1O-7" edge="1">
          <mxGeometry width="50" height="50" relative="1" as="geometry">
            <mxPoint x="450" y="169" as="sourcePoint" />
            <mxPoint x="450" y="250" as="targetPoint" />
            <Array as="points">
              <mxPoint x="460" y="180" />
              <mxPoint x="700" y="180" />
            </Array>
          </mxGeometry>
        </mxCell>
        <mxCell id="bnlqD7HyC4EOQEvdHB1O-15" value="" style="endArrow=oval;html=1;rounded=1;entryX=0.5;entryY=0;entryDx=0;entryDy=0;strokeColor=#E20074;curved=0;endFill=1;" parent="1" target="bnlqD7HyC4EOQEvdHB1O-8" edge="1">
          <mxGeometry width="50" height="50" relative="1" as="geometry">
            <mxPoint x="460" y="180" as="sourcePoint" />
            <mxPoint x="600" y="240" as="targetPoint" />
            <Array as="points">
              <mxPoint x="460" y="180" />
              <mxPoint x="930" y="180" />
            </Array>
          </mxGeometry>
        </mxCell>
        <mxCell id="bnlqD7HyC4EOQEvdHB1O-16" value="Charter" style="rounded=1;whiteSpace=wrap;html=1;gradientColor=none;fillColor=#11A0BB;strokeColor=none;fontFamily=teleneo;fontColor=#FFFFFF;fontSize=14;" parent="1" vertex="1">
          <mxGeometry x="-120" y="430" width="100" height="40" as="geometry" />
        </mxCell>
        <mxCell id="bnlqD7HyC4EOQEvdHB1O-17" value="Privacy &amp;amp;&lt;div&gt;Policy&lt;/div&gt;" style="rounded=1;whiteSpace=wrap;html=1;gradientColor=none;fillColor=#11A0BB;strokeColor=none;fontFamily=teleneo;fontColor=#FFFFFF;fontSize=14;" parent="1" vertex="1">
          <mxGeometry x="-120" y="490" width="100" height="40" as="geometry" />
        </mxCell>
        <mxCell id="bnlqD7HyC4EOQEvdHB1O-18" value="" style="endArrow=oval;html=1;rounded=0;exitX=0.5;exitY=1;exitDx=0;exitDy=0;entryX=1;entryY=0.5;entryDx=0;entryDy=0;strokeColor=#E20074;endFill=1;curved=0;" parent="1" source="bnlqD7HyC4EOQEvdHB1O-4" target="bnlqD7HyC4EOQEvdHB1O-11" edge="1">
          <mxGeometry width="50" height="50" relative="1" as="geometry">
            <mxPoint x="60" y="420" as="sourcePoint" />
            <mxPoint x="110" y="370" as="targetPoint" />
            <Array as="points">
              <mxPoint x="-10" y="380" />
            </Array>
          </mxGeometry>
        </mxCell>
        <mxCell id="bnlqD7HyC4EOQEvdHB1O-19" value="" style="endArrow=oval;html=1;rounded=0;exitX=0.5;exitY=1;exitDx=0;exitDy=0;entryX=1;entryY=0.5;entryDx=0;entryDy=0;strokeColor=#E20074;endFill=1;curved=0;" parent="1" source="bnlqD7HyC4EOQEvdHB1O-4" target="bnlqD7HyC4EOQEvdHB1O-16" edge="1">
          <mxGeometry width="50" height="50" relative="1" as="geometry">
            <mxPoint x="-50" y="310" as="sourcePoint" />
            <mxPoint x="-70" y="390" as="targetPoint" />
            <Array as="points">
              <mxPoint x="-10" y="450" />
            </Array>
          </mxGeometry>
        </mxCell>
        <mxCell id="bnlqD7HyC4EOQEvdHB1O-20" value="" style="endArrow=oval;html=1;rounded=1;exitX=0.5;exitY=1;exitDx=0;exitDy=0;entryX=1;entryY=0.5;entryDx=0;entryDy=0;strokeColor=#E20074;endFill=1;curved=0;" parent="1" source="bnlqD7HyC4EOQEvdHB1O-4" target="bnlqD7HyC4EOQEvdHB1O-17" edge="1">
          <mxGeometry width="50" height="50" relative="1" as="geometry">
            <mxPoint x="-50" y="310" as="sourcePoint" />
            <mxPoint x="-70" y="460" as="targetPoint" />
            <Array as="points">
              <mxPoint x="-10" y="510" />
            </Array>
          </mxGeometry>
        </mxCell>
        <mxCell id="bnlqD7HyC4EOQEvdHB1O-21" value="Customers" style="rounded=1;whiteSpace=wrap;html=1;gradientColor=none;fillColor=#11A0BB;strokeColor=none;fontFamily=teleneo;fontColor=#FFFFFF;fontSize=14;" parent="1" vertex="1">
          <mxGeometry y="360" width="100" height="40" as="geometry" />
        </mxCell>
        <mxCell id="bnlqD7HyC4EOQEvdHB1O-22" value="Governance" style="rounded=1;whiteSpace=wrap;html=1;gradientColor=none;fillColor=#11A0BB;strokeColor=none;fontFamily=teleneo;fontColor=#FFFFFF;fontSize=14;" parent="1" vertex="1">
          <mxGeometry y="430" width="100" height="40" as="geometry" />
        </mxCell>
        <mxCell id="bnlqD7HyC4EOQEvdHB1O-23" value="" style="endArrow=oval;html=1;rounded=0;exitX=0.5;exitY=1;exitDx=0;exitDy=0;entryX=0;entryY=0.5;entryDx=0;entryDy=0;strokeColor=#E20074;endFill=1;curved=0;" parent="1" source="bnlqD7HyC4EOQEvdHB1O-4" target="bnlqD7HyC4EOQEvdHB1O-21" edge="1">
          <mxGeometry width="50" height="50" relative="1" as="geometry">
            <mxPoint x="-50" y="310" as="sourcePoint" />
            <mxPoint x="-70" y="390" as="targetPoint" />
            <Array as="points">
              <mxPoint x="-10" y="380" />
            </Array>
          </mxGeometry>
        </mxCell>
        <mxCell id="bnlqD7HyC4EOQEvdHB1O-24" value="" style="endArrow=oval;html=1;rounded=0;exitX=0.5;exitY=1;exitDx=0;exitDy=0;entryX=0;entryY=0.5;entryDx=0;entryDy=0;strokeColor=#E20074;endFill=1;curved=0;" parent="1" source="bnlqD7HyC4EOQEvdHB1O-4" target="bnlqD7HyC4EOQEvdHB1O-22" edge="1">
          <mxGeometry width="50" height="50" relative="1" as="geometry">
            <mxPoint x="-50" y="310" as="sourcePoint" />
            <mxPoint x="-30" y="390" as="targetPoint" />
            <Array as="points">
              <mxPoint x="-10" y="450" />
            </Array>
          </mxGeometry>
        </mxCell>
        <mxCell id="bnlqD7HyC4EOQEvdHB1O-25" value="Employees" style="rounded=1;whiteSpace=wrap;html=1;gradientColor=none;fillColor=#11A0BB;strokeColor=none;fontFamily=teleneo;fontColor=#FFFFFF;fontSize=14;" parent="1" vertex="1">
          <mxGeometry x="110" y="360" width="100" height="40" as="geometry" />
        </mxCell>
        <mxCell id="bnlqD7HyC4EOQEvdHB1O-26" value="People&lt;div&gt;Mgmt&lt;/div&gt;" style="rounded=1;whiteSpace=wrap;html=1;gradientColor=none;fillColor=#11A0BB;strokeColor=none;fontFamily=teleneo;fontColor=#FFFFFF;fontSize=14;" parent="1" vertex="1">
          <mxGeometry x="110" y="430" width="100" height="40" as="geometry" />
        </mxCell>
        <mxCell id="bnlqD7HyC4EOQEvdHB1O-27" value="Training &amp;amp;&lt;div&gt;Education&lt;/div&gt;" style="rounded=1;whiteSpace=wrap;html=1;gradientColor=none;fillColor=#11A0BB;strokeColor=none;fontFamily=teleneo;fontColor=#FFFFFF;fontSize=14;" parent="1" vertex="1">
          <mxGeometry x="110" y="500" width="100" height="40" as="geometry" />
        </mxCell>
        <mxCell id="bnlqD7HyC4EOQEvdHB1O-28" value="Roles &amp;amp;&lt;div&gt;Hierarchy&lt;/div&gt;" style="rounded=1;whiteSpace=wrap;html=1;gradientColor=none;fillColor=#11A0BB;strokeColor=none;fontFamily=teleneo;fontColor=#FFFFFF;fontSize=14;" parent="1" vertex="1">
          <mxGeometry x="229" y="360" width="100" height="40" as="geometry" />
        </mxCell>
        <mxCell id="bnlqD7HyC4EOQEvdHB1O-29" value="Knowledge&lt;div&gt;Mgmmt&lt;/div&gt;" style="rounded=1;whiteSpace=wrap;html=1;gradientColor=none;fillColor=#11A0BB;strokeColor=none;fontFamily=teleneo;fontColor=#FFFFFF;fontSize=14;" parent="1" vertex="1">
          <mxGeometry x="230" y="430" width="100" height="40" as="geometry" />
        </mxCell>
        <mxCell id="bnlqD7HyC4EOQEvdHB1O-30" value="SOC Mgmt" style="rounded=1;whiteSpace=wrap;html=1;gradientColor=none;fillColor=#11A0BB;strokeColor=none;fontFamily=teleneo;fontColor=#FFFFFF;fontSize=14;" parent="1" vertex="1">
          <mxGeometry x="340" y="360" width="100" height="40" as="geometry" />
        </mxCell>
        <mxCell id="bnlqD7HyC4EOQEvdHB1O-31" value="Reporting" style="rounded=1;whiteSpace=wrap;html=1;gradientColor=none;fillColor=#11A0BB;strokeColor=none;fontFamily=teleneo;fontColor=#FFFFFF;fontSize=14;" parent="1" vertex="1">
          <mxGeometry x="340" y="430" width="100" height="40" as="geometry" />
        </mxCell>
        <mxCell id="bnlqD7HyC4EOQEvdHB1O-32" value="Detection&lt;div&gt;Engineering&lt;/div&gt;&lt;div&gt;&amp;amp; Validation&lt;/div&gt;" style="rounded=1;whiteSpace=wrap;html=1;gradientColor=none;fillColor=#11A0BB;strokeColor=none;fontFamily=teleneo;fontColor=#FFFFFF;fontSize=14;" parent="1" vertex="1">
          <mxGeometry x="340" y="500" width="100" height="60" as="geometry" />
        </mxCell>
        <mxCell id="bnlqD7HyC4EOQEvdHB1O-33" value="Operations&lt;div&gt;&amp;amp; Facilities&lt;/div&gt;" style="rounded=1;whiteSpace=wrap;html=1;gradientColor=none;fillColor=#11A0BB;strokeColor=none;fontFamily=teleneo;fontColor=#FFFFFF;fontSize=14;" parent="1" vertex="1">
          <mxGeometry x="480" y="360" width="100" height="40" as="geometry" />
        </mxCell>
        <mxCell id="bnlqD7HyC4EOQEvdHB1O-34" value="Use case&lt;div&gt;Mgmt&lt;/div&gt;" style="rounded=1;whiteSpace=wrap;html=1;gradientColor=none;fillColor=#11A0BB;strokeColor=none;fontFamily=teleneo;fontColor=#FFFFFF;fontSize=14;" parent="1" vertex="1">
          <mxGeometry x="480" y="430" width="100" height="40" as="geometry" />
        </mxCell>
        <mxCell id="bnlqD7HyC4EOQEvdHB1O-35" value="" style="endArrow=oval;html=1;rounded=0;exitX=0.5;exitY=1;exitDx=0;exitDy=0;entryX=1;entryY=0.5;entryDx=0;entryDy=0;curved=0;endFill=1;strokeColor=#E20074;" parent="1" source="bnlqD7HyC4EOQEvdHB1O-5" target="bnlqD7HyC4EOQEvdHB1O-25" edge="1">
          <mxGeometry width="50" height="50" relative="1" as="geometry">
            <mxPoint x="150" y="450" as="sourcePoint" />
            <mxPoint x="200" y="400" as="targetPoint" />
            <Array as="points">
              <mxPoint x="220" y="380" />
            </Array>
          </mxGeometry>
        </mxCell>
        <mxCell id="bnlqD7HyC4EOQEvdHB1O-36" value="" style="endArrow=oval;html=1;rounded=0;exitX=0.5;exitY=1;exitDx=0;exitDy=0;entryX=1;entryY=0.5;entryDx=0;entryDy=0;curved=0;endFill=1;strokeColor=#E20074;" parent="1" source="bnlqD7HyC4EOQEvdHB1O-5" target="bnlqD7HyC4EOQEvdHB1O-26" edge="1">
          <mxGeometry width="50" height="50" relative="1" as="geometry">
            <mxPoint x="210" y="320" as="sourcePoint" />
            <mxPoint x="190" y="390" as="targetPoint" />
            <Array as="points">
              <mxPoint x="220" y="450" />
            </Array>
          </mxGeometry>
        </mxCell>
        <mxCell id="bnlqD7HyC4EOQEvdHB1O-37" value="" style="endArrow=oval;html=1;rounded=1;exitX=0.5;exitY=1;exitDx=0;exitDy=0;entryX=1;entryY=0.5;entryDx=0;entryDy=0;curved=0;endFill=1;strokeColor=#E20074;" parent="1" source="bnlqD7HyC4EOQEvdHB1O-5" target="bnlqD7HyC4EOQEvdHB1O-27" edge="1">
          <mxGeometry width="50" height="50" relative="1" as="geometry">
            <mxPoint x="210" y="320" as="sourcePoint" />
            <mxPoint x="190" y="460" as="targetPoint" />
            <Array as="points">
              <mxPoint x="220" y="520" />
            </Array>
          </mxGeometry>
        </mxCell>
        <mxCell id="bnlqD7HyC4EOQEvdHB1O-38" value="" style="endArrow=oval;html=1;rounded=0;entryX=0;entryY=0.5;entryDx=0;entryDy=0;curved=0;endFill=1;strokeColor=#E20074;exitX=0.5;exitY=1;exitDx=0;exitDy=0;" parent="1" source="bnlqD7HyC4EOQEvdHB1O-5" target="bnlqD7HyC4EOQEvdHB1O-28" edge="1">
          <mxGeometry width="50" height="50" relative="1" as="geometry">
            <mxPoint x="210" y="320" as="sourcePoint" />
            <mxPoint x="190" y="390" as="targetPoint" />
            <Array as="points">
              <mxPoint x="220" y="380" />
            </Array>
          </mxGeometry>
        </mxCell>
        <mxCell id="bnlqD7HyC4EOQEvdHB1O-39" value="" style="endArrow=oval;html=1;rounded=0;curved=0;endFill=1;strokeColor=#E20074;" parent="1" edge="1">
          <mxGeometry width="50" height="50" relative="1" as="geometry">
            <mxPoint x="220" y="310" as="sourcePoint" />
            <mxPoint x="230" y="450" as="targetPoint" />
            <Array as="points">
              <mxPoint x="220" y="450" />
            </Array>
          </mxGeometry>
        </mxCell>
        <mxCell id="bnlqD7HyC4EOQEvdHB1O-41" value="" style="endArrow=oval;html=1;rounded=0;exitX=0.5;exitY=1;exitDx=0;exitDy=0;entryX=1;entryY=0.5;entryDx=0;entryDy=0;strokeColor=#E20074;endFill=1;" parent="1" source="bnlqD7HyC4EOQEvdHB1O-6" target="bnlqD7HyC4EOQEvdHB1O-30" edge="1">
          <mxGeometry width="50" height="50" relative="1" as="geometry">
            <mxPoint x="360" y="390" as="sourcePoint" />
            <mxPoint x="410" y="340" as="targetPoint" />
            <Array as="points">
              <mxPoint x="460" y="380" />
            </Array>
          </mxGeometry>
        </mxCell>
        <mxCell id="bnlqD7HyC4EOQEvdHB1O-42" value="" style="endArrow=oval;html=1;rounded=0;exitX=0.5;exitY=1;exitDx=0;exitDy=0;entryX=1;entryY=0.5;entryDx=0;entryDy=0;strokeColor=#E20074;endFill=1;" parent="1" source="bnlqD7HyC4EOQEvdHB1O-6" target="bnlqD7HyC4EOQEvdHB1O-31" edge="1">
          <mxGeometry width="50" height="50" relative="1" as="geometry">
            <mxPoint x="470" y="310" as="sourcePoint" />
            <mxPoint x="450" y="390" as="targetPoint" />
            <Array as="points">
              <mxPoint x="460" y="450" />
            </Array>
          </mxGeometry>
        </mxCell>
        <mxCell id="bnlqD7HyC4EOQEvdHB1O-43" value="" style="endArrow=oval;html=1;rounded=1;exitX=0.5;exitY=1;exitDx=0;exitDy=0;entryX=1;entryY=0.5;entryDx=0;entryDy=0;strokeColor=#E20074;endFill=1;curved=0;" parent="1" source="bnlqD7HyC4EOQEvdHB1O-6" target="bnlqD7HyC4EOQEvdHB1O-32" edge="1">
          <mxGeometry width="50" height="50" relative="1" as="geometry">
            <mxPoint x="470" y="310" as="sourcePoint" />
            <mxPoint x="450" y="460" as="targetPoint" />
            <Array as="points">
              <mxPoint x="460" y="530" />
            </Array>
          </mxGeometry>
        </mxCell>
        <mxCell id="bnlqD7HyC4EOQEvdHB1O-44" value="" style="endArrow=oval;html=1;rounded=0;exitX=0.5;exitY=1;exitDx=0;exitDy=0;entryX=0;entryY=0.5;entryDx=0;entryDy=0;strokeColor=#E20074;endFill=1;" parent="1" source="bnlqD7HyC4EOQEvdHB1O-6" target="bnlqD7HyC4EOQEvdHB1O-33" edge="1">
          <mxGeometry width="50" height="50" relative="1" as="geometry">
            <mxPoint x="470" y="310" as="sourcePoint" />
            <mxPoint x="450" y="390" as="targetPoint" />
            <Array as="points">
              <mxPoint x="460" y="380" />
            </Array>
          </mxGeometry>
        </mxCell>
        <mxCell id="bnlqD7HyC4EOQEvdHB1O-45" value="" style="endArrow=oval;html=1;rounded=0;exitX=0.5;exitY=1;exitDx=0;exitDy=0;entryX=0;entryY=0.5;entryDx=0;entryDy=0;strokeColor=#E20074;endFill=1;" parent="1" source="bnlqD7HyC4EOQEvdHB1O-6" target="bnlqD7HyC4EOQEvdHB1O-34" edge="1">
          <mxGeometry width="50" height="50" relative="1" as="geometry">
            <mxPoint x="470" y="310" as="sourcePoint" />
            <mxPoint x="450" y="460" as="targetPoint" />
            <Array as="points">
              <mxPoint x="460" y="450" />
            </Array>
          </mxGeometry>
        </mxCell>
        <mxCell id="bnlqD7HyC4EOQEvdHB1O-46" value="SIEM / UEBA" style="rounded=1;whiteSpace=wrap;html=1;gradientColor=none;fillColor=#848BC0;strokeColor=none;fontFamily=teleneo;fontColor=#FFFFFF;fontSize=14;" parent="1" vertex="1">
          <mxGeometry x="590" y="360" width="100" height="40" as="geometry" />
        </mxCell>
        <mxCell id="bnlqD7HyC4EOQEvdHB1O-47" value="NDR" style="rounded=1;whiteSpace=wrap;html=1;gradientColor=none;fillColor=#848BC0;strokeColor=none;fontFamily=teleneo;fontColor=#FFFFFF;fontSize=14;" parent="1" vertex="1">
          <mxGeometry x="590" y="430" width="100" height="40" as="geometry" />
        </mxCell>
        <mxCell id="bnlqD7HyC4EOQEvdHB1O-48" value="EDR" style="rounded=1;whiteSpace=wrap;html=1;gradientColor=none;fillColor=#848BC0;strokeColor=none;fontFamily=teleneo;fontColor=#FFFFFF;fontSize=14;" parent="1" vertex="1">
          <mxGeometry x="710" y="360" width="100" height="40" as="geometry" />
        </mxCell>
        <mxCell id="bnlqD7HyC4EOQEvdHB1O-49" value="SOAR" style="rounded=1;whiteSpace=wrap;html=1;gradientColor=none;fillColor=#848BC0;strokeColor=none;fontFamily=teleneo;fontColor=#FFFFFF;fontSize=14;" parent="1" vertex="1">
          <mxGeometry x="710" y="430" width="100" height="40" as="geometry" />
        </mxCell>
        <mxCell id="bnlqD7HyC4EOQEvdHB1O-50" value="" style="endArrow=oval;html=1;rounded=0;exitX=0.5;exitY=1;exitDx=0;exitDy=0;entryX=1;entryY=0.5;entryDx=0;entryDy=0;strokeColor=#E20074;endFill=1;" parent="1" source="bnlqD7HyC4EOQEvdHB1O-7" target="bnlqD7HyC4EOQEvdHB1O-46" edge="1">
          <mxGeometry width="50" height="50" relative="1" as="geometry">
            <mxPoint x="580" y="380" as="sourcePoint" />
            <mxPoint x="630" y="330" as="targetPoint" />
            <Array as="points">
              <mxPoint x="700" y="380" />
            </Array>
          </mxGeometry>
        </mxCell>
        <mxCell id="bnlqD7HyC4EOQEvdHB1O-51" value="" style="endArrow=oval;html=1;rounded=0;entryX=0;entryY=0.5;entryDx=0;entryDy=0;strokeColor=#E20074;endFill=1;exitX=0.5;exitY=1;exitDx=0;exitDy=0;" parent="1" source="bnlqD7HyC4EOQEvdHB1O-7" target="bnlqD7HyC4EOQEvdHB1O-48" edge="1">
          <mxGeometry width="50" height="50" relative="1" as="geometry">
            <mxPoint x="730" y="310" as="sourcePoint" />
            <mxPoint x="710" y="390" as="targetPoint" />
            <Array as="points">
              <mxPoint x="700" y="380" />
            </Array>
          </mxGeometry>
        </mxCell>
        <mxCell id="bnlqD7HyC4EOQEvdHB1O-52" value="" style="endArrow=oval;html=1;rounded=0;entryX=1;entryY=0.5;entryDx=0;entryDy=0;strokeColor=#E20074;endFill=1;exitX=0.5;exitY=1;exitDx=0;exitDy=0;" parent="1" source="bnlqD7HyC4EOQEvdHB1O-7" target="bnlqD7HyC4EOQEvdHB1O-47" edge="1">
          <mxGeometry width="50" height="50" relative="1" as="geometry">
            <mxPoint x="730" y="310" as="sourcePoint" />
            <mxPoint x="750" y="390" as="targetPoint" />
            <Array as="points">
              <mxPoint x="700" y="450" />
            </Array>
          </mxGeometry>
        </mxCell>
        <mxCell id="bnlqD7HyC4EOQEvdHB1O-53" value="" style="endArrow=oval;html=1;rounded=0;entryX=0;entryY=0.5;entryDx=0;entryDy=0;strokeColor=#E20074;endFill=1;exitX=0.5;exitY=1;exitDx=0;exitDy=0;" parent="1" source="bnlqD7HyC4EOQEvdHB1O-7" target="bnlqD7HyC4EOQEvdHB1O-49" edge="1">
          <mxGeometry width="50" height="50" relative="1" as="geometry">
            <mxPoint x="720" y="300" as="sourcePoint" />
            <mxPoint x="710" y="460" as="targetPoint" />
            <Array as="points">
              <mxPoint x="700" y="450" />
            </Array>
          </mxGeometry>
        </mxCell>
        <mxCell id="bnlqD7HyC4EOQEvdHB1O-54" value="Security&lt;div&gt;Monitoring&lt;/div&gt;" style="rounded=1;whiteSpace=wrap;html=1;gradientColor=none;fillColor=#848BC0;strokeColor=none;fontFamily=teleneo;fontColor=#FFFFFF;fontSize=14;" parent="1" vertex="1">
          <mxGeometry x="820" y="360" width="100" height="40" as="geometry" />
        </mxCell>
        <mxCell id="bnlqD7HyC4EOQEvdHB1O-55" value="Security&lt;div&gt;Analysis&lt;/div&gt;" style="rounded=1;whiteSpace=wrap;html=1;gradientColor=none;fillColor=#848BC0;strokeColor=none;fontFamily=teleneo;fontColor=#FFFFFF;fontSize=14;" parent="1" vertex="1">
          <mxGeometry x="820" y="430" width="100" height="40" as="geometry" />
        </mxCell>
        <mxCell id="bnlqD7HyC4EOQEvdHB1O-56" value="Threat&lt;div&gt;Hunting&lt;/div&gt;" style="rounded=1;whiteSpace=wrap;html=1;gradientColor=none;fillColor=#848BC0;strokeColor=none;fontFamily=teleneo;fontColor=#FFFFFF;fontSize=14;" parent="1" vertex="1">
          <mxGeometry x="820" y="500" width="100" height="40" as="geometry" />
        </mxCell>
        <mxCell id="bnlqD7HyC4EOQEvdHB1O-57" value="Log Mgmt" style="rounded=1;whiteSpace=wrap;html=1;gradientColor=none;fillColor=#848BC0;strokeColor=none;fontFamily=teleneo;fontColor=#FFFFFF;fontSize=14;" parent="1" vertex="1">
          <mxGeometry x="820" y="570" width="100" height="40" as="geometry" />
        </mxCell>
        <mxCell id="bnlqD7HyC4EOQEvdHB1O-58" value="Security&lt;div style=&quot;font-size: 10px;&quot;&gt;Incident&lt;/div&gt;&lt;div style=&quot;font-size: 10px;&quot;&gt;Mgmt&lt;/div&gt;" style="rounded=1;whiteSpace=wrap;html=1;gradientColor=none;fillColor=#848BC0;strokeColor=none;fontFamily=teleneo;fontColor=#FFFFFF;fontSize=10;" parent="1" vertex="1">
          <mxGeometry x="940" y="360" width="100" height="40" as="geometry" />
        </mxCell>
        <mxCell id="bnlqD7HyC4EOQEvdHB1O-59" value="Threat&lt;div&gt;Intelligence&lt;/div&gt;" style="rounded=1;whiteSpace=wrap;html=1;gradientColor=none;fillColor=#848BC0;strokeColor=none;fontFamily=teleneo;fontColor=#FFFFFF;fontSize=14;" parent="1" vertex="1">
          <mxGeometry x="940" y="430" width="100" height="40" as="geometry" />
        </mxCell>
        <mxCell id="bnlqD7HyC4EOQEvdHB1O-60" value="Vulnerability&lt;div&gt;Mgmt&lt;/div&gt;" style="rounded=1;whiteSpace=wrap;html=1;gradientColor=none;fillColor=#848BC0;strokeColor=none;fontFamily=teleneo;fontColor=#FFFFFF;fontSize=14;" parent="1" vertex="1">
          <mxGeometry x="940" y="500" width="100" height="40" as="geometry" />
        </mxCell>
        <mxCell id="bnlqD7HyC4EOQEvdHB1O-61" value="" style="endArrow=oval;html=1;rounded=0;exitX=0.5;exitY=1;exitDx=0;exitDy=0;entryX=1;entryY=0.5;entryDx=0;entryDy=0;fontColor=#E20074;strokeColor=#E20074;endFill=1;" parent="1" source="bnlqD7HyC4EOQEvdHB1O-8" target="bnlqD7HyC4EOQEvdHB1O-54" edge="1">
          <mxGeometry width="50" height="50" relative="1" as="geometry">
            <mxPoint x="870" y="380" as="sourcePoint" />
            <mxPoint x="920" y="330" as="targetPoint" />
            <Array as="points">
              <mxPoint x="930" y="380" />
            </Array>
          </mxGeometry>
        </mxCell>
        <mxCell id="bnlqD7HyC4EOQEvdHB1O-62" value="" style="endArrow=oval;html=1;rounded=0;exitX=0.5;exitY=1;exitDx=0;exitDy=0;entryX=1;entryY=0.5;entryDx=0;entryDy=0;fontColor=#E20074;strokeColor=#E20074;endFill=1;" parent="1" source="bnlqD7HyC4EOQEvdHB1O-8" target="bnlqD7HyC4EOQEvdHB1O-55" edge="1">
          <mxGeometry width="50" height="50" relative="1" as="geometry">
            <mxPoint x="990" y="310" as="sourcePoint" />
            <mxPoint x="970" y="390" as="targetPoint" />
            <Array as="points">
              <mxPoint x="930" y="450" />
            </Array>
          </mxGeometry>
        </mxCell>
        <mxCell id="bnlqD7HyC4EOQEvdHB1O-63" value="" style="endArrow=oval;html=1;rounded=0;exitX=0.5;exitY=1;exitDx=0;exitDy=0;entryX=1;entryY=0.5;entryDx=0;entryDy=0;fontColor=#E20074;strokeColor=#E20074;endFill=1;" parent="1" source="bnlqD7HyC4EOQEvdHB1O-8" target="bnlqD7HyC4EOQEvdHB1O-56" edge="1">
          <mxGeometry width="50" height="50" relative="1" as="geometry">
            <mxPoint x="990" y="310" as="sourcePoint" />
            <mxPoint x="970" y="460" as="targetPoint" />
            <Array as="points">
              <mxPoint x="930" y="520" />
            </Array>
          </mxGeometry>
        </mxCell>
        <mxCell id="bnlqD7HyC4EOQEvdHB1O-64" value="" style="endArrow=oval;html=1;rounded=1;exitX=0.5;exitY=1;exitDx=0;exitDy=0;entryX=1;entryY=0.5;entryDx=0;entryDy=0;fontColor=#E20074;strokeColor=#E20074;endFill=1;curved=0;" parent="1" source="bnlqD7HyC4EOQEvdHB1O-8" target="bnlqD7HyC4EOQEvdHB1O-57" edge="1">
          <mxGeometry width="50" height="50" relative="1" as="geometry">
            <mxPoint x="990" y="310" as="sourcePoint" />
            <mxPoint x="970" y="530" as="targetPoint" />
            <Array as="points">
              <mxPoint x="930" y="590" />
            </Array>
          </mxGeometry>
        </mxCell>
        <mxCell id="bnlqD7HyC4EOQEvdHB1O-65" value="" style="endArrow=oval;html=1;rounded=0;entryX=0;entryY=0.5;entryDx=0;entryDy=0;fontColor=#E20074;strokeColor=#E20074;endFill=1;exitX=0.5;exitY=1;exitDx=0;exitDy=0;" parent="1" source="bnlqD7HyC4EOQEvdHB1O-8" target="bnlqD7HyC4EOQEvdHB1O-58" edge="1">
          <mxGeometry width="50" height="50" relative="1" as="geometry">
            <mxPoint x="980" y="300" as="sourcePoint" />
            <mxPoint x="970" y="390" as="targetPoint" />
            <Array as="points">
              <mxPoint x="930" y="380" />
            </Array>
          </mxGeometry>
        </mxCell>
        <mxCell id="bnlqD7HyC4EOQEvdHB1O-66" value="" style="endArrow=oval;html=1;rounded=0;entryX=0;entryY=0.5;entryDx=0;entryDy=0;fontColor=#E20074;strokeColor=#E20074;endFill=1;exitX=0.5;exitY=1;exitDx=0;exitDy=0;" parent="1" source="bnlqD7HyC4EOQEvdHB1O-8" target="bnlqD7HyC4EOQEvdHB1O-59" edge="1">
          <mxGeometry width="50" height="50" relative="1" as="geometry">
            <mxPoint x="980" y="300" as="sourcePoint" />
            <mxPoint x="1010" y="390" as="targetPoint" />
            <Array as="points">
              <mxPoint x="930" y="450" />
            </Array>
          </mxGeometry>
        </mxCell>
        <mxCell id="bnlqD7HyC4EOQEvdHB1O-67" value="" style="endArrow=oval;html=1;rounded=0;entryX=0;entryY=0.5;entryDx=0;entryDy=0;fontColor=#E20074;strokeColor=#E20074;endFill=1;exitX=0.5;exitY=1;exitDx=0;exitDy=0;" parent="1" source="bnlqD7HyC4EOQEvdHB1O-8" target="bnlqD7HyC4EOQEvdHB1O-60" edge="1">
          <mxGeometry width="50" height="50" relative="1" as="geometry">
            <mxPoint x="990" y="310" as="sourcePoint" />
            <mxPoint x="1010" y="460" as="targetPoint" />
            <Array as="points">
              <mxPoint x="930" y="520" />
            </Array>
          </mxGeometry>
        </mxCell>
        <mxCell id="bnlqD7HyC4EOQEvdHB1O-68" value="" style="endArrow=none;dashed=1;html=1;rounded=0;strokeColor=#E20074;strokeWidth=2;" parent="1" edge="1">
          <mxGeometry width="50" height="50" relative="1" as="geometry">
            <mxPoint x="-140" y="320" as="sourcePoint" />
            <mxPoint x="1050" y="320" as="targetPoint" />
          </mxGeometry>
        </mxCell>
        <mxCell id="bnlqD7HyC4EOQEvdHB1O-69" value="&lt;font style=&quot;font-size: 18px;&quot; face=&quot;teleneo&quot;&gt;Aspect&lt;/font&gt;" style="text;html=1;align=center;verticalAlign=middle;whiteSpace=wrap;rounded=0;fontColor=#E20074;fontSize=18;" parent="1" vertex="1">
          <mxGeometry x="-140" y="320" width="50" height="20" as="geometry" />
        </mxCell>
        <mxCell id="bnlqD7HyC4EOQEvdHB1O-70" value="" style="endArrow=none;dashed=1;html=1;rounded=0;strokeColor=#E20074;strokeWidth=2;" parent="1" edge="1">
          <mxGeometry width="50" height="50" relative="1" as="geometry">
            <mxPoint x="-140" y="200" as="sourcePoint" />
            <mxPoint x="1050" y="200" as="targetPoint" />
          </mxGeometry>
        </mxCell>
        <mxCell id="bnlqD7HyC4EOQEvdHB1O-71" value="&lt;font style=&quot;font-size: 18px;&quot; face=&quot;teleneo&quot;&gt;Domain&lt;/font&gt;" style="text;html=1;align=center;verticalAlign=middle;whiteSpace=wrap;rounded=0;fontColor=#E20074;fontSize=18;" parent="1" vertex="1">
          <mxGeometry x="-140" y="200" width="60" height="20" as="geometry" />
        </mxCell>
        <mxCell id="bnlqD7HyC4EOQEvdHB1O-72" value="&lt;font style=&quot;font-size: 18px;&quot; face=&quot;teleneo&quot;&gt;Organisational entity&lt;/font&gt;" style="text;html=1;align=center;verticalAlign=middle;whiteSpace=wrap;rounded=0;fontColor=#E20074;fontSize=18;" parent="1" vertex="1">
          <mxGeometry x="-150" y="120" width="160" height="20" as="geometry" />
        </mxCell>
        <mxCell id="bnlqD7HyC4EOQEvdHB1O-74" value="Incomplete" style="rounded=1;whiteSpace=wrap;html=1;fillColor=#E20074;strokeColor=#FFFFFF;fontFamily=teleneo;fontColor=#FFFFFF;fontSize=16;" parent="1" vertex="1">
          <mxGeometry x="160" y="1060" width="160" height="60" as="geometry" />
        </mxCell>
        <mxCell id="bnlqD7HyC4EOQEvdHB1O-76" value="Performed" style="rounded=1;whiteSpace=wrap;html=1;fillColor=#E20074;strokeColor=#FFFFFF;fontFamily=teleneo;fontColor=#FFFFFF;fontSize=16;" parent="1" vertex="1">
          <mxGeometry x="239" y="1000" width="170" height="60" as="geometry" />
        </mxCell>
        <mxCell id="bnlqD7HyC4EOQEvdHB1O-77" value="Managed" style="rounded=1;whiteSpace=wrap;html=1;fillColor=#E20074;strokeColor=#FFFFFF;fontFamily=teleneo;fontColor=#FFFFFF;fontSize=16;" parent="1" vertex="1">
          <mxGeometry x="315" y="940" width="170" height="60" as="geometry" />
        </mxCell>
        <mxCell id="bnlqD7HyC4EOQEvdHB1O-78" value="Defined" style="rounded=1;whiteSpace=wrap;html=1;fillColor=#E20074;strokeColor=#FFFFFF;fontFamily=teleneo;fontColor=#FFFFFF;fontSize=16;" parent="1" vertex="1">
          <mxGeometry x="399" y="880" width="170" height="60" as="geometry" />
        </mxCell>
        <mxCell id="bnlqD7HyC4EOQEvdHB1O-79" value="" style="endArrow=classic;html=1;rounded=0;strokeWidth=3;strokeColor=#000000;endFill=1;" parent="1" edge="1">
          <mxGeometry width="50" height="50" relative="1" as="geometry">
            <mxPoint x="450" y="1090" as="sourcePoint" />
            <mxPoint x="710" y="910" as="targetPoint" />
          </mxGeometry>
        </mxCell>
        <mxCell id="bnlqD7HyC4EOQEvdHB1O-81" value="" style="endArrow=none;dashed=1;html=1;rounded=0;exitX=1;exitY=0.5;exitDx=0;exitDy=0;strokeWidth=2;strokeColor=#000000;" parent="1" source="bnlqD7HyC4EOQEvdHB1O-78" edge="1">
          <mxGeometry width="50" height="50" relative="1" as="geometry">
            <mxPoint x="320" y="1100" as="sourcePoint" />
            <mxPoint x="700" y="910" as="targetPoint" />
          </mxGeometry>
        </mxCell>
        <mxCell id="bnlqD7HyC4EOQEvdHB1O-83" value="Continuous growth" style="text;html=1;align=center;verticalAlign=middle;whiteSpace=wrap;rounded=0;fontSize=18;fontFamily=teleneo;rotation=326;" parent="1" vertex="1">
          <mxGeometry x="443.62" y="995.71" width="305.03" height="30" as="geometry" />
        </mxCell>
        <mxCell id="bnlqD7HyC4EOQEvdHB1O-84" value="0" style="text;html=1;align=center;verticalAlign=middle;whiteSpace=wrap;rounded=0;fontSize=17;fontFamily=teleneo;" parent="1" vertex="1">
          <mxGeometry x="130" y="1075" width="30" height="30" as="geometry" />
        </mxCell>
        <mxCell id="bnlqD7HyC4EOQEvdHB1O-85" value="1" style="text;html=1;align=center;verticalAlign=middle;whiteSpace=wrap;rounded=0;fontSize=17;fontFamily=teleneo;" parent="1" vertex="1">
          <mxGeometry x="209" y="1015" width="30" height="30" as="geometry" />
        </mxCell>
        <mxCell id="bnlqD7HyC4EOQEvdHB1O-87" value="2" style="text;html=1;align=center;verticalAlign=middle;whiteSpace=wrap;rounded=0;fontSize=17;fontFamily=teleneo;" parent="1" vertex="1">
          <mxGeometry x="285" y="955" width="30" height="30" as="geometry" />
        </mxCell>
        <mxCell id="bnlqD7HyC4EOQEvdHB1O-88" value="3" style="text;html=1;align=center;verticalAlign=middle;whiteSpace=wrap;rounded=0;fontSize=17;fontFamily=teleneo;" parent="1" vertex="1">
          <mxGeometry x="370" y="895" width="30" height="30" as="geometry" />
        </mxCell>
        <mxCell id="bnlqD7HyC4EOQEvdHB1O-90" value="Non-existent" style="rounded=1;whiteSpace=wrap;html=1;fillColor=#E20074;strokeColor=#FFFFFF;fontFamily=teleneo;fontColor=#FFFFFF;fontSize=16;" parent="1" vertex="1">
          <mxGeometry x="1870" y="1120" width="160" height="60" as="geometry" />
        </mxCell>
        <mxCell id="bnlqD7HyC4EOQEvdHB1O-92" value="Initial" style="rounded=1;whiteSpace=wrap;html=1;fillColor=#E20074;strokeColor=#FFFFFF;fontFamily=teleneo;fontColor=#FFFFFF;fontSize=16;" parent="1" vertex="1">
          <mxGeometry x="1950" y="1060" width="160" height="60" as="geometry" />
        </mxCell>
        <mxCell id="bnlqD7HyC4EOQEvdHB1O-93" value="Managed" style="rounded=1;whiteSpace=wrap;html=1;fillColor=#E20074;strokeColor=#FFFFFF;fontFamily=teleneo;fontColor=#FFFFFF;fontSize=16;" parent="1" vertex="1">
          <mxGeometry x="2030" y="1000" width="160" height="60" as="geometry" />
        </mxCell>
        <mxCell id="bnlqD7HyC4EOQEvdHB1O-94" value="Defined" style="rounded=1;whiteSpace=wrap;html=1;fillColor=#E20074;strokeColor=#FFFFFF;fontFamily=teleneo;fontColor=#FFFFFF;fontSize=16;" parent="1" vertex="1">
          <mxGeometry x="2110" y="940" width="160" height="60" as="geometry" />
        </mxCell>
        <mxCell id="bnlqD7HyC4EOQEvdHB1O-95" value="Quantitatively&lt;div&gt;Managed&lt;/div&gt;" style="rounded=1;whiteSpace=wrap;html=1;fillColor=#E20074;strokeColor=#FFFFFF;fontFamily=teleneo;fontColor=#FFFFFF;fontSize=16;" parent="1" vertex="1">
          <mxGeometry x="2190" y="880" width="160" height="60" as="geometry" />
        </mxCell>
        <mxCell id="bnlqD7HyC4EOQEvdHB1O-96" value="Optimizing" style="rounded=1;whiteSpace=wrap;html=1;fillColor=#E20074;strokeColor=#FFFFFF;fontFamily=teleneo;fontColor=#FFFFFF;fontSize=16;" parent="1" vertex="1">
          <mxGeometry x="2270" y="820" width="160" height="60" as="geometry" />
        </mxCell>
        <mxCell id="bnlqD7HyC4EOQEvdHB1O-97" value="" style="endArrow=none;dashed=1;html=1;strokeWidth=4;rounded=0;exitX=1;exitY=0.5;exitDx=0;exitDy=0;" parent="1" source="bnlqD7HyC4EOQEvdHB1O-90" edge="1">
          <mxGeometry width="50" height="50" relative="1" as="geometry">
            <mxPoint x="2180" y="1141" as="sourcePoint" />
            <mxPoint x="2230" y="1150" as="targetPoint" />
          </mxGeometry>
        </mxCell>
        <mxCell id="bnlqD7HyC4EOQEvdHB1O-98" value="" style="endArrow=none;dashed=1;html=1;strokeWidth=4;rounded=0;exitX=1;exitY=0.5;exitDx=0;exitDy=0;" parent="1" edge="1">
          <mxGeometry width="50" height="50" relative="1" as="geometry">
            <mxPoint x="2430" y="849.5" as="sourcePoint" />
            <mxPoint x="2630" y="849.5" as="targetPoint" />
          </mxGeometry>
        </mxCell>
        <mxCell id="bnlqD7HyC4EOQEvdHB1O-99" value="" style="endArrow=classic;html=1;rounded=0;strokeWidth=3;" parent="1" edge="1">
          <mxGeometry width="50" height="50" relative="1" as="geometry">
            <mxPoint x="2230" y="1151" as="sourcePoint" />
            <mxPoint x="2630" y="851" as="targetPoint" />
          </mxGeometry>
        </mxCell>
        <mxCell id="bnlqD7HyC4EOQEvdHB1O-100" value="Continuous growth" style="text;html=1;align=center;verticalAlign=middle;whiteSpace=wrap;rounded=0;fontSize=26;fontFamily=teleneo;rotation=323;" parent="1" vertex="1">
          <mxGeometry x="2188.7" y="1000.99" width="489.95" height="30" as="geometry" />
        </mxCell>
        <mxCell id="bnlqD7HyC4EOQEvdHB1O-101" value="0" style="text;html=1;align=center;verticalAlign=middle;whiteSpace=wrap;rounded=0;fontSize=18;fontFamily=teleneo;fontStyle=1" parent="1" vertex="1">
          <mxGeometry x="1840" y="1135" width="30" height="30" as="geometry" />
        </mxCell>
        <mxCell id="bnlqD7HyC4EOQEvdHB1O-102" value="1" style="text;html=1;align=center;verticalAlign=middle;whiteSpace=wrap;rounded=0;fontSize=18;fontFamily=teleneo;fontStyle=1" parent="1" vertex="1">
          <mxGeometry x="1920" y="1075" width="30" height="30" as="geometry" />
        </mxCell>
        <mxCell id="bnlqD7HyC4EOQEvdHB1O-104" value="2" style="text;html=1;align=center;verticalAlign=middle;whiteSpace=wrap;rounded=0;fontSize=18;fontFamily=teleneo;fontStyle=1" parent="1" vertex="1">
          <mxGeometry x="2000" y="1015" width="30" height="30" as="geometry" />
        </mxCell>
        <mxCell id="bnlqD7HyC4EOQEvdHB1O-105" value="3" style="text;html=1;align=center;verticalAlign=middle;whiteSpace=wrap;rounded=0;fontSize=18;fontFamily=teleneo;fontStyle=1" parent="1" vertex="1">
          <mxGeometry x="2080" y="955" width="30" height="30" as="geometry" />
        </mxCell>
        <mxCell id="bnlqD7HyC4EOQEvdHB1O-106" value="4" style="text;html=1;align=center;verticalAlign=middle;whiteSpace=wrap;rounded=0;fontSize=18;fontFamily=teleneo;fontStyle=1" parent="1" vertex="1">
          <mxGeometry x="2160" y="895" width="30" height="30" as="geometry" />
        </mxCell>
        <mxCell id="bnlqD7HyC4EOQEvdHB1O-107" value="5" style="text;html=1;align=center;verticalAlign=middle;whiteSpace=wrap;rounded=0;fontSize=18;fontFamily=teleneo;fontStyle=1" parent="1" vertex="1">
          <mxGeometry x="2240" y="835" width="30" height="30" as="geometry" />
        </mxCell>
        <mxCell id="bnlqD7HyC4EOQEvdHB1O-108" value="" style="endArrow=none;dashed=1;html=1;rounded=0;exitX=1;exitY=0.5;exitDx=0;exitDy=0;strokeWidth=2;strokeColor=#000000;" parent="1" edge="1">
          <mxGeometry width="50" height="50" relative="1" as="geometry">
            <mxPoint x="319" y="1089.69" as="sourcePoint" />
            <mxPoint x="450" y="1089.69" as="targetPoint" />
          </mxGeometry>
        </mxCell>
        <mxCell id="QqUJkOEku_8o-fna_ZQ2-1" value="&lt;div style=&quot;font-size: 29px;&quot;&gt;&lt;b style=&quot;&quot;&gt;&lt;font style=&quot;font-size: 29px;&quot;&gt;Maturity Levels&lt;/font&gt;&lt;/b&gt;&lt;/div&gt;&lt;div style=&quot;font-size: 29px;&quot;&gt;Calculates a maturity score using 6 maturity levels:&lt;/div&gt;&lt;div&gt;&lt;br&gt;&lt;/div&gt;- Level 0: non-existent&lt;div style=&quot;font-size: 26px;&quot;&gt;- Level 1: initial&lt;/div&gt;&lt;div style=&quot;font-size: 26px;&quot;&gt;- Level 2: managed&lt;/div&gt;&lt;div style=&quot;font-size: 26px;&quot;&gt;- Level 3: defined&lt;/div&gt;&lt;div style=&quot;font-size: 26px;&quot;&gt;- Level 4: quantitatively managed&lt;/div&gt;&lt;div style=&quot;font-size: 26px;&quot;&gt;- Level 5: optimizing&lt;/div&gt;" style="text;html=1;align=left;verticalAlign=top;whiteSpace=wrap;rounded=0;fontSize=26;" vertex="1" parent="1">
          <mxGeometry x="1290" y="820" width="770" height="360" as="geometry" />
        </mxCell>
        <mxCell id="QqUJkOEku_8o-fna_ZQ2-2" value="&lt;div style=&quot;font-size: 26px;&quot;&gt;&lt;span style=&quot;background-color: initial;&quot;&gt;&lt;b style=&quot;&quot;&gt;&lt;font style=&quot;font-size: 26px;&quot;&gt;Capability Levels&lt;/font&gt;&lt;/b&gt;&lt;/span&gt;&lt;/div&gt;&lt;div style=&quot;font-size: 26px;&quot;&gt;&lt;span style=&quot;background-color: initial;&quot;&gt;Calculates a capability score using 4 capavility levels:&lt;/span&gt;&lt;br style=&quot;font-size: 24px;&quot;&gt;&lt;/div&gt;&lt;div style=&quot;font-size: 24px;&quot;&gt;&lt;br style=&quot;font-size: 24px;&quot;&gt;&lt;/div&gt;- Level 0: non-existent&lt;div style=&quot;font-size: 24px;&quot;&gt;- Level 1: initial&lt;/div&gt;&lt;div style=&quot;font-size: 24px;&quot;&gt;- Level 2: managed&lt;/div&gt;&lt;div style=&quot;font-size: 24px;&quot;&gt;- Level 3: defined&lt;/div&gt;&lt;div style=&quot;font-size: 24px;&quot;&gt;- Level 4: quantitatively managed&lt;/div&gt;&lt;div style=&quot;font-size: 24px;&quot;&gt;- Level 5: optimizing&lt;/div&gt;" style="text;html=1;align=left;verticalAlign=top;whiteSpace=wrap;rounded=0;fontSize=24;" vertex="1" parent="1">
          <mxGeometry x="-470" y="840" width="770" height="280" as="geometry" />
        </mxCell>
      </root>
    </mxGraphModel>
  </diagram>
</mxfile>
